<svg xmlns="http://www.w3.org/2000/svg" viewBox="0 0 250 250">
    <rect x="0" y="0" width="250" height="250" fill="#000000"/>

    <!-- U -->
    <rect x="20" y="30" width="10" height="10" fill="#205090"/>
    <rect x="30" y="30" width="10" height="10" fill="#205090"/>
    <rect x="40" y="30" width="10" height="10" fill="#205090"/>
    <rect x="200" y="30" width="10" height="10" fill="#205090"/>
    <rect x="210" y="30" width="10" height="10" fill="#205090"/>
    <rect x="220" y="30" width="10" height="10" fill="#205090"/>
    <rect x="30" y="40" width="10" height="10" fill="#205090"/>
    <rect x="40" y="40" width="10" height="10" fill="#205090"/>
    <rect x="210" y="40" width="10" height="10" fill="#205090"/>
    <rect x="200" y="40" width="10" height="10" fill="#205090"/>
    <rect x="30" y="50" width="10" height="10" fill="#205090"/>
    <rect x="40" y="50" width="10" height="10" fill="#205090"/>
    <rect x="200" y="50" width="10" height="10" fill="#205090"/>
    <rect x="210" y="50" width="10" height="10" fill="#205090"/>
    <rect x="30" y="60" width="10" height="10" fill="#205090"/>
    <rect x="40" y="60" width="10" height="10" fill="#205090"/>
    <rect x="200" y="60" width="10" height="10" fill="#205090"/>
    <rect x="210" y="60" width="10" height="10" fill="#205090"/>
    <rect x="30" y="70" width="10" height="10" fill="#205090"/>
    <rect x="40" y="70" width="10" height="10" fill="#205090"/>
    <rect x="200" y="70" width="10" height="10" fill="#205090"/>
    <rect x="210" y="70" width="10" height="10" fill="#205090"/>
    <rect x="30" y="80" width="10" height="10" fill="#205090"/>
    <rect x="40" y="80" width="10" height="10" fill="#205090"/>
    <rect x="200" y="80" width="10" height="10" fill="#205090"/>
    <rect x="210" y="80" width="10" height="10" fill="#205090"/>
    <rect x="30" y="90" width="10" height="10" fill="#205090"/>
    <rect x="40" y="90" width="10" height="10" fill="#205090"/>
    <rect x="200" y="90" width="10" height="10" fill="#205090"/>
    <rect x="210" y="90" width="10" height="10" fill="#205090"/>
    <rect x="30" y="100" width="10" height="10" fill="#205090"/>
    <rect x="40" y="100" width="10" height="10" fill="#205090"/>
    <rect x="200" y="100" width="10" height="10" fill="#205090"/>
    <rect x="210" y="100" width="10" height="10" fill="#205090"/>
    <rect x="30" y="110" width="10" height="10" fill="#205090"/>
    <rect x="40" y="110" width="10" height="10" fill="#205090"/>
    <rect x="200" y="110" width="10" height="10" fill="#205090"/>
    <rect x="210" y="110" width="10" height="10" fill="#205090"/>
    <rect x="30" y="120" width="10" height="10" fill="#205090"/>
    <rect x="40" y="120" width="10" height="10" fill="#205090"/>
    <rect x="200" y="120" width="10" height="10" fill="#205090"/>
    <rect x="210" y="120" width="10" height="10" fill="#205090"/>
    <rect x="30" y="130" width="10" height="10" fill="#205090"/>
    <rect x="40" y="130" width="10" height="10" fill="#205090"/>
    <rect x="200" y="130" width="10" height="10" fill="#205090"/>
    <rect x="210" y="130" width="10" height="10" fill="#205090"/>
    <rect x="30" y="140" width="10" height="10" fill="#205090"/>
    <rect x="40" y="140" width="10" height="10" fill="#205090"/>
    <rect x="200" y="140" width="10" height="10" fill="#205090"/>
    <rect x="210" y="140" width="10" height="10" fill="#205090"/>
    <rect x="30" y="150" width="10" height="10" fill="#205090"/>
    <rect x="40" y="150" width="10" height="10" fill="#205090"/>
    <rect x="200" y="150" width="10" height="10" fill="#205090"/>
    <rect x="210" y="150" width="10" height="10" fill="#205090"/>
    <rect x="30" y="160" width="10" height="10" fill="#205090"/>
    <rect x="40" y="160" width="10" height="10" fill="#205090"/>
    <rect x="200" y="160" width="10" height="10" fill="#205090"/>
    <rect x="210" y="160" width="10" height="10" fill="#205090"/>
    <rect x="30" y="170" width="10" height="10" fill="#205090"/>
    <rect x="40" y="170" width="10" height="10" fill="#205090"/>
    <rect x="200" y="170" width="10" height="10" fill="#205090"/>
    <rect x="210" y="170" width="10" height="10" fill="#205090"/>
    <rect x="30" y="180" width="10" height="10" fill="#205090"/>
    <rect x="40" y="180" width="10" height="10" fill="#205090"/>
    <rect x="210" y="180" width="10" height="10" fill="#205090"/>
    <rect x="200" y="180" width="10" height="10" fill="#205090"/>
    <rect x="30" y="190" width="10" height="10" fill="#205090"/>
    <rect x="40" y="190" width="10" height="10" fill="#205090"/>
    <rect x="200" y="190" width="10" height="10" fill="#205090"/>
    <rect x="210" y="190" width="10" height="10" fill="#205090"/>
    <rect x="20" y="200" width="10" height="10" fill="#205090"/>
    <rect x="30" y="200" width="10" height="10" fill="#205090"/>
    <rect x="40" y="200" width="10" height="10" fill="#205090"/>
    <rect x="50" y="200" width="10" height="10" fill="#205090"/>
    <rect x="60" y="200" width="10" height="10" fill="#205090"/>
    <rect x="70" y="200" width="10" height="10" fill="#205090"/>
    <rect x="80" y="200" width="10" height="10" fill="#205090"/>
    <rect x="90" y="200" width="10" height="10" fill="#205090"/>
    <rect x="100" y="200" width="10" height="10" fill="#205090"/>
    <rect x="110" y="200" width="10" height="10" fill="#205090"/>
    <rect x="120" y="200" width="10" height="10" fill="#205090"/>
    <rect x="130" y="200" width="10" height="10" fill="#205090"/>
    <rect x="140" y="200" width="10" height="10" fill="#205090"/>
    <rect x="150" y="200" width="10" height="10" fill="#205090"/>
    <rect x="160" y="200" width="10" height="10" fill="#205090"/>
    <rect x="170" y="200" width="10" height="10" fill="#205090"/>
    <rect x="180" y="200" width="10" height="10" fill="#205090"/>
    <rect x="190" y="200" width="10" height="10" fill="#205090"/>
    <rect x="200" y="200" width="10" height="10" fill="#205090"/>
    <rect x="210" y="200" width="10" height="10" fill="#205090"/>
    <rect x="220" y="200" width="10" height="10" fill="#205090"/>
    <rect x="10" y="210" width="10" height="10" fill="#205090"/>
    <rect x="20" y="210" width="10" height="10" fill="#205090"/>
    <rect x="30" y="210" width="10" height="10" fill="#205090"/>
    <rect x="40" y="210" width="10" height="10" fill="#205090"/>
    <rect x="50" y="210" width="10" height="10" fill="#205090"/>
    <rect x="60" y="210" width="10" height="10" fill="#205090"/>
    <rect x="70" y="210" width="10" height="10" fill="#205090"/>
    <rect x="80" y="210" width="10" height="10" fill="#205090"/>
    <rect x="90" y="210" width="10" height="10" fill="#205090"/>
    <rect x="100" y="210" width="10" height="10" fill="#205090"/>
    <rect x="110" y="210" width="10" height="10" fill="#205090"/>
    <rect x="120" y="210" width="10" height="10" fill="#205090"/>
    <rect x="130" y="210" width="10" height="10" fill="#205090"/>
    <rect x="140" y="210" width="10" height="10" fill="#205090"/>
    <rect x="150" y="210" width="10" height="10" fill="#205090"/>
    <rect x="160" y="210" width="10" height="10" fill="#205090"/>
    <rect x="170" y="210" width="10" height="10" fill="#205090"/>
    <rect x="180" y="210" width="10" height="10" fill="#205090"/>
    <rect x="190" y="210" width="10" height="10" fill="#205090"/>
    <rect x="200" y="210" width="10" height="10" fill="#205090"/>
    <rect x="210" y="210" width="10" height="10" fill="#205090"/>
    <rect x="220" y="210" width="10" height="10" fill="#205090"/>
    <rect x="230" y="210" width="10" height="10" fill="#205090"/>

    <!-- H -->
    <rect x="60" y="30" width="10" height="10" fill="#f2b753"/>
    <rect x="70" y="30" width="10" height="10" fill="#f2b753"/>
    <rect x="60" y="40" width="10" height="10" fill="#f2b753"/>
    <rect x="70" y="40" width="10" height="10" fill="#f2b753"/>
    <rect x="60" y="50" width="10" height="10" fill="#f2b753"/>
    <rect x="70" y="50" width="10" height="10" fill="#f2b753"/>
    <rect x="60" y="60" width="10" height="10" fill="#f2b753"/>
    <rect x="70" y="60" width="10" height="10" fill="#f2b753"/>
    <rect x="60" y="70" width="10" height="10" fill="#f2b753"/>
    <rect x="70" y="70" width="10" height="10" fill="#f2b753"/>
    <rect x="60" y="80" width="10" height="10" fill="#f2b753"/>
    <rect x="70" y="80" width="10" height="10" fill="#f2b753"/>
    <rect x="60" y="90" width="10" height="10" fill="#f2b753"/>
    <rect x="70" y="90" width="10" height="10" fill="#f2b753"/>
    <rect x="60" y="100" width="10" height="10" fill="#f2b753"/>
    <rect x="70" y="100" width="10" height="10" fill="#f2b753"/>
    <rect x="60" y="110" width="10" height="10" fill="#f2b753"/>
    <rect x="70" y="110" width="10" height="10" fill="#f2b753"/>
    <rect x="60" y="120" width="10" height="10" fill="#f2b753"/>
    <rect x="70" y="120" width="10" height="10" fill="#f2b753"/>
    <rect x="60" y="130" width="10" height="10" fill="#f2b753"/>
    <rect x="70" y="130" width="10" height="10" fill="#f2b753"/>
    <rect x="60" y="140" width="10" height="10" fill="#f2b753"/>
    <rect x="70" y="140" width="10" height="10" fill="#f2b753"/>
    <rect x="60" y="150" width="10" height="10" fill="#f2b753"/>
    <rect x="70" y="150" width="10" height="10" fill="#f2b753"/>
    <rect x="60" y="160" width="10" height="10" fill="#f2b753"/>
    <rect x="70" y="160" width="10" height="10" fill="#f2b753"/>
    <rect x="60" y="170" width="10" height="10" fill="#f2b753"/>
    <rect x="70" y="170" width="10" height="10" fill="#f2b753"/>
    <rect x="60" y="180" width="10" height="10" fill="#f2b753"/>
    <rect x="70" y="180" width="10" height="10" fill="#f2b753"/>
    <rect x="80" y="100" width="10" height="10" fill="#f2b753"/>
    <rect x="90" y="100" width="10" height="10" fill="#f2b753"/>
    <rect x="80" y="110" width="10" height="10" fill="#f2b753"/>
    <rect x="90" y="110" width="10" height="10" fill="#f2b753"/>
    <rect x="100" y="100" width="10" height="10" fill="#f2b753"/>
    <rect x="110" y="100" width="10" height="10" fill="#f2b753"/>
    <rect x="100" y="110" width="10" height="10" fill="#f2b753"/>
    <rect x="110" y="110" width="10" height="10" fill="#f2b753"/>
    <rect x="120" y="100" width="10" height="10" fill="#f2b753"/>
    <rect x="130" y="100" width="10" height="10" fill="#f2b753"/>
    <rect x="120" y="110" width="10" height="10" fill="#f2b753"/>
    <rect x="130" y="110" width="10" height="10" fill="#f2b753"/>
    <rect x="140" y="100" width="10" height="10" fill="#f2b753"/>
    <rect x="150" y="100" width="10" height="10" fill="#f2b753"/>
    <rect x="140" y="110" width="10" height="10" fill="#f2b753"/>
    <rect x="150" y="110" width="10" height="10" fill="#f2b753"/>
    <rect x="160" y="100" width="10" height="10" fill="#f2b753"/>
    <rect x="170" y="100" width="10" height="10" fill="#f2b753"/>
    <rect x="160" y="110" width="10" height="10" fill="#f2b753"/>
    <rect x="170" y="110" width="10" height="10" fill="#f2b753"/>
    <rect x="180" y="100" width="10" height="10" fill="#f2b753"/>
    <rect x="180" y="110" width="10" height="10" fill="#f2b753"/>
    <rect x="180" y="80" width="10" height="10" fill="#f2b753"/>
    <rect x="180" y="90" width="10" height="10" fill="#f2b753"/>
    <rect x="170" y="80" width="10" height="10" fill="#f2b753"/>
    <rect x="170" y="90" width="10" height="10" fill="#f2b753"/>
    <rect x="180" y="60" width="10" height="10" fill="#f2b753"/>
    <rect x="180" y="70" width="10" height="10" fill="#f2b753"/>
    <rect x="170" y="60" width="10" height="10" fill="#f2b753"/>
    <rect x="170" y="70" width="10" height="10" fill="#f2b753"/>
    <rect x="180" y="40" width="10" height="10" fill="#f2b753"/>
    <rect x="180" y="50" width="10" height="10" fill="#f2b753"/>
    <rect x="170" y="40" width="10" height="10" fill="#f2b753"/>
    <rect x="170" y="50" width="10" height="10" fill="#f2b753"/>
    <rect x="180" y="30" width="10" height="10" fill="#f2b753"/>
    <rect x="170" y="30" width="10" height="10" fill="#f2b753"/>
    <rect x="180" y="120" width="10" height="10" fill="#f2b753"/>
    <rect x="170" y="120" width="10" height="10" fill="#f2b753"/>
    <rect x="180" y="130" width="10" height="10" fill="#f2b753"/>
    <rect x="170" y="130" width="10" height="10" fill="#f2b753"/>
    <rect x="180" y="140" width="10" height="10" fill="#f2b753"/>
    <rect x="170" y="140" width="10" height="10" fill="#f2b753"/>
    <rect x="180" y="150" width="10" height="10" fill="#f2b753"/>
    <rect x="170" y="150" width="10" height="10" fill="#f2b753"/>
    <rect x="180" y="160" width="10" height="10" fill="#f2b753"/>
    <rect x="170" y="160" width="10" height="10" fill="#f2b753"/>
    <rect x="180" y="170" width="10" height="10" fill="#f2b753"/>
    <rect x="170" y="170" width="10" height="10" fill="#f2b753"/>
    <rect x="180" y="180" width="10" height="10" fill="#f2b753"/>
    <rect x="170" y="180" width="10" height="10" fill="#f2b753"/>

    <!-- S(top) -->
    <rect x="90" y="30" width="10" height="10" fill="#f2b753"/>
    <rect x="100" y="30" width="10" height="10" fill="#f2b753"/>
    <rect x="110" y="30" width="10" height="10" fill="#f2b753"/>
    <rect x="120" y="30" width="10" height="10" fill="#f2b753"/>
    <rect x="130" y="30" width="10" height="10" fill="#f2b753"/>
    <rect x="140" y="30" width="10" height="10" fill="#f2b753"/>
    <rect x="150" y="30" width="10" height="10" fill="#f2b753"/>
    <rect x="90" y="55" width="10" height="10" fill="#f2b753"/>
    <rect x="100" y="55" width="10" height="10" fill="#f2b753"/>
    <rect x="110" y="55" width="10" height="10" fill="#f2b753"/>
    <rect x="120" y="55" width="10" height="10" fill="#f2b753"/>
    <rect x="130" y="55" width="10" height="10" fill="#f2b753"/>
    <rect x="140" y="55" width="10" height="10" fill="#f2b753"/>
    <rect x="150" y="55" width="10" height="10" fill="#f2b753"/>
    <rect x="90" y="80" width="10" height="10" fill="#f2b753"/>
    <rect x="100" y="80" width="10" height="10" fill="#f2b753"/>
    <rect x="110" y="80" width="10" height="10" fill="#f2b753"/>
    <rect x="120" y="80" width="10" height="10" fill="#f2b753"/>
    <rect x="130" y="80" width="10" height="10" fill="#f2b753"/>
    <rect x="140" y="80" width="10" height="10" fill="#f2b753"/>
    <rect x="150" y="80" width="10" height="10" fill="#f2b753"/>
    <rect x="90" y="40" width="10" height="10" fill="#f2b753"/>
    <rect x="150" y="70" width="10" height="10" fill="#f2b753"/>

    <!-- S(down) -->
    <rect x="90" y="130" width="10" height="10" fill="#f2b753"/>
    <rect x="100" y="130" width="10" height="10" fill="#f2b753"/>
    <rect x="110" y="130" width="10" height="10" fill="#f2b753"/>
    <rect x="120" y="130" width="10" height="10" fill="#f2b753"/>
    <rect x="130" y="130" width="10" height="10" fill="#f2b753"/>
    <rect x="140" y="130" width="10" height="10" fill="#f2b753"/>
    <rect x="150" y="130" width="10" height="10" fill="#f2b753"/>
    <rect x="90" y="155" width="10" height="10" fill="#f2b753"/>
    <rect x="100" y="155" width="10" height="10" fill="#f2b753"/>
    <rect x="110" y="155" width="10" height="10" fill="#f2b753"/>
    <rect x="120" y="155" width="10" height="10" fill="#f2b753"/>
    <rect x="130" y="155" width="10" height="10" fill="#f2b753"/>
    <rect x="140" y="155" width="10" height="10" fill="#f2b753"/>
    <rect x="150" y="155" width="10" height="10" fill="#f2b753"/>
    <rect x="90" y="180" width="10" height="10" fill="#f2b753"/>
    <rect x="100" y="180" width="10" height="10" fill="#f2b753"/>
    <rect x="110" y="180" width="10" height="10" fill="#f2b753"/>
    <rect x="120" y="180" width="10" height="10" fill="#f2b753"/>
    <rect x="130" y="180" width="10" height="10" fill="#f2b753"/>
    <rect x="140" y="180" width="10" height="10" fill="#f2b753"/>
    <rect x="150" y="180" width="10" height="10" fill="#f2b753"/>
    <rect x="90" y="140" width="10" height="10" fill="#f2b753"/>
    <rect x="150" y="170" width="10" height="10" fill="#f2b753"/>
</svg>